<svg width="421" height="313" viewBox="0 0 421 313" fill="none" xmlns="http://www.w3.org/2000/svg">
<g filter="url(#filter0_f_4_419)">
<mask id="path-1-outside-1_4_419" maskUnits="userSpaceOnUse" x="9.16406" y="9.17322" width="402" height="294" fill="black">
<rect fill="white" x="9.16406" y="9.17322" width="402" height="294"/>
<path d="M269.963 275.848L275.875 265.086L281.854 276.103L292.747 282.295L281.895 288.014L275.987 298.776L270.004 287.756L259.114 281.567L269.963 275.848ZM14.1641 33.8944L27.2004 41.3039L34.3597 54.4923L41.4301 41.6151L54.4188 34.7674L41.3827 27.358L34.2233 14.1732L27.153 27.0502L14.1641 33.8944ZM365.909 212.099L378.946 219.509L386.105 232.697L393.175 219.82L406.164 212.972L393.128 205.563L385.969 192.374L378.898 205.255L365.909 212.099ZM184.565 136.889L191.945 141.087L195.997 148.553L200.003 141.26L207.354 137.385L199.974 133.188L195.921 125.722L191.919 133.014L184.565 136.889ZM227.12 187.136L234.5 191.33L238.552 198.796L242.555 191.507L249.909 187.629L242.529 183.435L238.476 175.969L234.47 183.261L227.12 187.136ZM183.453 129.166C184.307 127.834 183.922 126.056 182.588 125.198L181.381 124.423C180.055 123.565 178.276 123.957 177.419 125.29C176.566 126.622 176.951 128.399 178.285 129.257L179.492 130.032C179.961 130.335 180.489 130.482 181.01 130.487C181.961 130.496 182.899 130.028 183.453 129.166ZM167.762 119.091C168.619 117.759 168.23 115.982 166.897 115.124L165.69 114.348C164.363 113.49 162.589 113.879 161.728 115.215C160.875 116.547 161.263 118.324 162.593 119.183L163.8 119.958C164.269 120.261 164.797 120.408 165.318 120.412C166.273 120.421 167.207 119.953 167.762 119.091ZM152.07 109.02C152.927 107.684 152.539 105.907 151.205 105.053L150.002 104.277C148.671 103.416 146.897 103.808 146.04 105.14C145.183 106.473 145.571 108.25 146.905 109.108L148.108 109.883C148.581 110.186 149.109 110.333 149.63 110.338C150.582 110.347 151.519 109.879 152.07 109.02ZM136.386 98.9422C137.239 97.6064 136.851 95.8292 135.517 94.9745L134.31 94.1994C132.973 93.3448 131.205 93.7337 130.348 95.0694C129.495 96.4053 129.883 98.1789 131.213 99.0335L132.424 99.8086C132.897 100.115 133.421 100.259 133.942 100.263C134.897 100.272 135.831 99.8079 136.386 98.9422ZM120.694 88.8676C121.547 87.5319 121.159 85.7546 119.829 84.9L118.618 84.1248C117.281 83.2702 115.51 83.6591 114.656 84.995C113.803 86.3307 114.192 88.1044 115.522 88.9589L116.732 89.7343C117.205 90.0371 117.729 90.184 118.251 90.1888C119.205 90.1975 120.143 89.7299 120.694 88.8676ZM105.002 78.793C105.859 77.4573 105.467 75.6836 104.137 74.8254L102.93 74.0538C101.589 73.1956 99.8184 73.5847 98.9685 74.9204C98.1116 76.2561 98.5036 78.0298 99.8339 78.8878L101.041 79.6631C101.513 79.966 102.041 80.1095 102.559 80.1142C103.514 80.1229 104.451 79.6588 105.002 78.793ZM89.3142 68.7221C90.1675 67.3898 89.7792 65.6125 88.449 64.7545L87.2421 63.9792C85.9154 63.1212 84.1372 63.5136 83.2805 64.8422C82.4234 66.1781 82.8119 67.9552 84.1457 68.8098L85.3526 69.5851C85.8218 69.8914 86.3493 70.0385 86.8709 70.0433C87.822 70.052 88.7598 69.5841 89.3142 68.7221ZM73.6227 58.6475C74.476 57.3118 74.091 55.5345 72.7573 54.6799L71.5506 53.9046C70.2274 53.0466 68.4455 53.4391 67.5888 54.7678C66.7354 56.1035 67.1204 57.8806 68.4542 58.7352L69.6609 59.5105C70.1301 59.8168 70.6576 59.9639 71.1794 59.9687C72.1305 59.9774 73.0683 59.5096 73.6227 58.6475ZM57.9345 48.5693C58.7915 47.2373 58.3995 45.4599 57.0692 44.6054L55.8625 43.83C54.5251 42.9719 52.7541 43.3645 51.9007 44.6967C51.0437 46.0324 51.4321 47.8097 52.7659 48.6643L53.9728 49.4394C54.4456 49.7425 54.9695 49.8894 55.4911 49.8942C56.4459 49.9029 57.3837 49.4353 57.9345 48.5693ZM233.206 179.024C234.391 177.972 234.503 176.16 233.456 174.971L232.508 173.895C231.458 172.706 229.648 172.593 228.46 173.645C227.276 174.694 227.164 176.509 228.21 177.699L229.159 178.773C229.721 179.408 230.499 179.735 231.283 179.742C231.965 179.748 232.652 179.513 233.206 179.024ZM220.865 165.041C222.05 163.99 222.159 162.174 221.112 160.988L220.16 159.913C219.106 158.724 217.297 158.615 216.112 159.666C214.924 160.715 214.816 162.53 215.866 163.716L216.815 164.795C217.377 165.429 218.155 165.756 218.939 165.763C219.624 165.769 220.311 165.531 220.865 165.041ZM208.517 151.059C209.702 150.007 209.811 148.192 208.764 147.006L207.812 145.931C206.758 144.738 204.949 144.632 203.764 145.684C202.576 146.732 202.467 148.548 203.518 149.734L204.466 150.812C205.028 151.447 205.806 151.774 206.591 151.781C207.276 151.787 207.963 151.548 208.517 151.059ZM266.626 265.833C268.111 265.289 268.878 263.639 268.338 262.149L267.847 260.801C267.303 259.31 265.656 258.549 264.167 259.089C262.682 259.634 261.915 261.28 262.455 262.77L262.947 264.122C263.373 265.277 264.456 265.998 265.616 266.009C265.954 266.012 266.291 265.955 266.626 265.833ZM260.241 248.298C261.73 247.753 262.494 246.104 261.953 244.617L261.462 243.265C260.915 241.775 259.271 241.013 257.783 241.554C256.298 242.098 255.53 243.748 256.07 245.235L256.565 246.587C256.988 247.742 258.071 248.463 259.231 248.473C259.569 248.477 259.906 248.419 260.241 248.298ZM253.856 230.762C255.345 230.218 256.109 228.569 255.569 227.078L255.077 225.73C254.53 224.235 252.89 223.478 251.398 224.019C249.913 224.559 249.145 226.209 249.689 227.699L250.181 229.047C250.603 230.207 251.69 230.927 252.846 230.938C253.184 230.941 253.521 230.884 253.856 230.762ZM247.471 213.227C248.96 212.683 249.724 211.033 249.184 209.542L248.692 208.194C248.145 206.704 246.508 205.942 245.013 206.483C243.528 207.027 242.764 208.673 243.304 210.164L243.796 211.512C244.218 212.671 245.305 213.392 246.462 213.403C246.799 213.406 247.14 213.348 247.471 213.227ZM358.799 204.481C359.072 202.92 358.031 201.432 356.472 201.158L355.058 200.91C353.492 200.64 352.01 201.679 351.74 203.24C351.466 204.802 352.507 206.29 354.066 206.564L355.48 206.814C355.64 206.841 355.796 206.857 355.952 206.858C357.329 206.871 358.555 205.887 358.799 204.481ZM340.443 201.253C340.716 199.688 339.672 198.203 338.113 197.93L336.699 197.682C335.105 197.408 333.654 198.454 333.381 200.015C333.107 201.58 334.151 203.065 335.714 203.339L337.125 203.586C337.284 203.613 337.44 203.628 337.596 203.63C338.973 203.642 340.196 202.655 340.443 201.253ZM322.084 198.025C322.361 196.463 321.313 194.975 319.754 194.701L318.344 194.454C316.752 194.187 315.298 195.229 315.025 196.791C314.752 198.352 315.796 199.84 317.355 200.114L318.769 200.361C318.928 200.388 319.084 200.4 319.237 200.401C320.614 200.414 321.84 199.43 322.084 198.025ZM303.728 194.804C304.002 193.239 302.961 191.75 301.402 191.477L299.988 191.229C298.418 190.955 296.939 191.997 296.669 193.559C296.392 195.124 297.437 196.612 298.996 196.886L300.406 197.133C300.566 197.163 300.725 197.175 300.881 197.177C302.258 197.189 303.481 196.205 303.728 194.804ZM285.369 191.575C285.646 190.014 284.602 188.526 283.042 188.252L281.632 188.004C280.059 187.727 278.583 188.773 278.31 190.334C278.037 191.896 279.077 193.384 280.64 193.658L282.05 193.909C282.21 193.935 282.366 193.951 282.522 193.952C283.903 193.965 285.125 192.98 285.369 191.575ZM267.013 188.351C267.286 186.789 266.246 185.301 264.687 185.027L263.273 184.776C261.699 184.502 260.224 185.544 259.954 187.109C259.678 188.671 260.722 190.159 262.281 190.433L263.695 190.68C263.854 190.71 264.01 190.722 264.166 190.724C265.543 190.736 266.77 189.752 267.013 188.351Z"/>
</mask>
<path d="M269.963 275.848L275.875 265.086L281.854 276.103L292.747 282.295L281.895 288.014L275.987 298.776L270.004 287.756L259.114 281.567L269.963 275.848ZM14.1641 33.8944L27.2004 41.3039L34.3597 54.4923L41.4301 41.6151L54.4188 34.7674L41.3827 27.358L34.2233 14.1732L27.153 27.0502L14.1641 33.8944ZM365.909 212.099L378.946 219.509L386.105 232.697L393.175 219.82L406.164 212.972L393.128 205.563L385.969 192.374L378.898 205.255L365.909 212.099ZM184.565 136.889L191.945 141.087L195.997 148.553L200.003 141.26L207.354 137.385L199.974 133.188L195.921 125.722L191.919 133.014L184.565 136.889ZM227.12 187.136L234.5 191.33L238.552 198.796L242.555 191.507L249.909 187.629L242.529 183.435L238.476 175.969L234.47 183.261L227.12 187.136ZM183.453 129.166C184.307 127.834 183.922 126.056 182.588 125.198L181.381 124.423C180.055 123.565 178.276 123.957 177.419 125.29C176.566 126.622 176.951 128.399 178.285 129.257L179.492 130.032C179.961 130.335 180.489 130.482 181.01 130.487C181.961 130.496 182.899 130.028 183.453 129.166ZM167.762 119.091C168.619 117.759 168.23 115.982 166.897 115.124L165.69 114.348C164.363 113.49 162.589 113.879 161.728 115.215C160.875 116.547 161.263 118.324 162.593 119.183L163.8 119.958C164.269 120.261 164.797 120.408 165.318 120.412C166.273 120.421 167.207 119.953 167.762 119.091ZM152.07 109.02C152.927 107.684 152.539 105.907 151.205 105.053L150.002 104.277C148.671 103.416 146.897 103.808 146.04 105.14C145.183 106.473 145.571 108.25 146.905 109.108L148.108 109.883C148.581 110.186 149.109 110.333 149.63 110.338C150.582 110.347 151.519 109.879 152.07 109.02ZM136.386 98.9422C137.239 97.6064 136.851 95.8292 135.517 94.9745L134.31 94.1994C132.973 93.3448 131.205 93.7337 130.348 95.0694C129.495 96.4053 129.883 98.1789 131.213 99.0335L132.424 99.8086C132.897 100.115 133.421 100.259 133.942 100.263C134.897 100.272 135.831 99.8079 136.386 98.9422ZM120.694 88.8676C121.547 87.5319 121.159 85.7546 119.829 84.9L118.618 84.1248C117.281 83.2702 115.51 83.6591 114.656 84.995C113.803 86.3307 114.192 88.1044 115.522 88.9589L116.732 89.7343C117.205 90.0371 117.729 90.184 118.251 90.1888C119.205 90.1975 120.143 89.7299 120.694 88.8676ZM105.002 78.793C105.859 77.4573 105.467 75.6836 104.137 74.8254L102.93 74.0538C101.589 73.1956 99.8184 73.5847 98.9685 74.9204C98.1116 76.2561 98.5036 78.0298 99.8339 78.8878L101.041 79.6631C101.513 79.966 102.041 80.1095 102.559 80.1142C103.514 80.1229 104.451 79.6588 105.002 78.793ZM89.3142 68.7221C90.1675 67.3898 89.7792 65.6125 88.449 64.7545L87.2421 63.9792C85.9154 63.1212 84.1372 63.5136 83.2805 64.8422C82.4234 66.1781 82.8119 67.9552 84.1457 68.8098L85.3526 69.5851C85.8218 69.8914 86.3493 70.0385 86.8709 70.0433C87.822 70.052 88.7598 69.5841 89.3142 68.7221ZM73.6227 58.6475C74.476 57.3118 74.091 55.5345 72.7573 54.6799L71.5506 53.9046C70.2274 53.0466 68.4455 53.4391 67.5888 54.7678C66.7354 56.1035 67.1204 57.8806 68.4542 58.7352L69.6609 59.5105C70.1301 59.8168 70.6576 59.9639 71.1794 59.9687C72.1305 59.9774 73.0683 59.5096 73.6227 58.6475ZM57.9345 48.5693C58.7915 47.2373 58.3995 45.4599 57.0692 44.6054L55.8625 43.83C54.5251 42.9719 52.7541 43.3645 51.9007 44.6967C51.0437 46.0324 51.4321 47.8097 52.7659 48.6643L53.9728 49.4394C54.4456 49.7425 54.9695 49.8894 55.4911 49.8942C56.4459 49.9029 57.3837 49.4353 57.9345 48.5693ZM233.206 179.024C234.391 177.972 234.503 176.16 233.456 174.971L232.508 173.895C231.458 172.706 229.648 172.593 228.46 173.645C227.276 174.694 227.164 176.509 228.21 177.699L229.159 178.773C229.721 179.408 230.499 179.735 231.283 179.742C231.965 179.748 232.652 179.513 233.206 179.024ZM220.865 165.041C222.05 163.99 222.159 162.174 221.112 160.988L220.16 159.913C219.106 158.724 217.297 158.615 216.112 159.666C214.924 160.715 214.816 162.53 215.866 163.716L216.815 164.795C217.377 165.429 218.155 165.756 218.939 165.763C219.624 165.769 220.311 165.531 220.865 165.041ZM208.517 151.059C209.702 150.007 209.811 148.192 208.764 147.006L207.812 145.931C206.758 144.738 204.949 144.632 203.764 145.684C202.576 146.732 202.467 148.548 203.518 149.734L204.466 150.812C205.028 151.447 205.806 151.774 206.591 151.781C207.276 151.787 207.963 151.548 208.517 151.059ZM266.626 265.833C268.111 265.289 268.878 263.639 268.338 262.149L267.847 260.801C267.303 259.31 265.656 258.549 264.167 259.089C262.682 259.634 261.915 261.28 262.455 262.77L262.947 264.122C263.373 265.277 264.456 265.998 265.616 266.009C265.954 266.012 266.291 265.955 266.626 265.833ZM260.241 248.298C261.73 247.753 262.494 246.104 261.953 244.617L261.462 243.265C260.915 241.775 259.271 241.013 257.783 241.554C256.298 242.098 255.53 243.748 256.07 245.235L256.565 246.587C256.988 247.742 258.071 248.463 259.231 248.473C259.569 248.477 259.906 248.419 260.241 248.298ZM253.856 230.762C255.345 230.218 256.109 228.569 255.569 227.078L255.077 225.73C254.53 224.235 252.89 223.478 251.398 224.019C249.913 224.559 249.145 226.209 249.689 227.699L250.181 229.047C250.603 230.207 251.69 230.927 252.846 230.938C253.184 230.941 253.521 230.884 253.856 230.762ZM247.471 213.227C248.96 212.683 249.724 211.033 249.184 209.542L248.692 208.194C248.145 206.704 246.508 205.942 245.013 206.483C243.528 207.027 242.764 208.673 243.304 210.164L243.796 211.512C244.218 212.671 245.305 213.392 246.462 213.403C246.799 213.406 247.14 213.348 247.471 213.227ZM358.799 204.481C359.072 202.92 358.031 201.432 356.472 201.158L355.058 200.91C353.492 200.64 352.01 201.679 351.74 203.24C351.466 204.802 352.507 206.29 354.066 206.564L355.48 206.814C355.64 206.841 355.796 206.857 355.952 206.858C357.329 206.871 358.555 205.887 358.799 204.481ZM340.443 201.253C340.716 199.688 339.672 198.203 338.113 197.93L336.699 197.682C335.105 197.408 333.654 198.454 333.381 200.015C333.107 201.58 334.151 203.065 335.714 203.339L337.125 203.586C337.284 203.613 337.44 203.628 337.596 203.63C338.973 203.642 340.196 202.655 340.443 201.253ZM322.084 198.025C322.361 196.463 321.313 194.975 319.754 194.701L318.344 194.454C316.752 194.187 315.298 195.229 315.025 196.791C314.752 198.352 315.796 199.84 317.355 200.114L318.769 200.361C318.928 200.388 319.084 200.4 319.237 200.401C320.614 200.414 321.84 199.43 322.084 198.025ZM303.728 194.804C304.002 193.239 302.961 191.75 301.402 191.477L299.988 191.229C298.418 190.955 296.939 191.997 296.669 193.559C296.392 195.124 297.437 196.612 298.996 196.886L300.406 197.133C300.566 197.163 300.725 197.175 300.881 197.177C302.258 197.189 303.481 196.205 303.728 194.804ZM285.369 191.575C285.646 190.014 284.602 188.526 283.042 188.252L281.632 188.004C280.059 187.727 278.583 188.773 278.31 190.334C278.037 191.896 279.077 193.384 280.64 193.658L282.05 193.909C282.21 193.935 282.366 193.951 282.522 193.952C283.903 193.965 285.125 192.98 285.369 191.575ZM267.013 188.351C267.286 186.789 266.246 185.301 264.687 185.027L263.273 184.776C261.699 184.502 260.224 185.544 259.954 187.109C259.678 188.671 260.722 190.159 262.281 190.433L263.695 190.68C263.854 190.71 264.01 190.722 264.166 190.724C265.543 190.736 266.77 189.752 267.013 188.351Z" fill="#7895FF"/>
<path d="M269.963 275.848L275.875 265.086L281.854 276.103L292.747 282.295L281.895 288.014L275.987 298.776L270.004 287.756L259.114 281.567L269.963 275.848ZM14.1641 33.8944L27.2004 41.3039L34.3597 54.4923L41.4301 41.6151L54.4188 34.7674L41.3827 27.358L34.2233 14.1732L27.153 27.0502L14.1641 33.8944ZM365.909 212.099L378.946 219.509L386.105 232.697L393.175 219.82L406.164 212.972L393.128 205.563L385.969 192.374L378.898 205.255L365.909 212.099ZM184.565 136.889L191.945 141.087L195.997 148.553L200.003 141.26L207.354 137.385L199.974 133.188L195.921 125.722L191.919 133.014L184.565 136.889ZM227.12 187.136L234.5 191.33L238.552 198.796L242.555 191.507L249.909 187.629L242.529 183.435L238.476 175.969L234.47 183.261L227.12 187.136ZM183.453 129.166C184.307 127.834 183.922 126.056 182.588 125.198L181.381 124.423C180.055 123.565 178.276 123.957 177.419 125.29C176.566 126.622 176.951 128.399 178.285 129.257L179.492 130.032C179.961 130.335 180.489 130.482 181.01 130.487C181.961 130.496 182.899 130.028 183.453 129.166ZM167.762 119.091C168.619 117.759 168.23 115.982 166.897 115.124L165.69 114.348C164.363 113.49 162.589 113.879 161.728 115.215C160.875 116.547 161.263 118.324 162.593 119.183L163.8 119.958C164.269 120.261 164.797 120.408 165.318 120.412C166.273 120.421 167.207 119.953 167.762 119.091ZM152.07 109.02C152.927 107.684 152.539 105.907 151.205 105.053L150.002 104.277C148.671 103.416 146.897 103.808 146.04 105.14C145.183 106.473 145.571 108.25 146.905 109.108L148.108 109.883C148.581 110.186 149.109 110.333 149.63 110.338C150.582 110.347 151.519 109.879 152.07 109.02ZM136.386 98.9422C137.239 97.6064 136.851 95.8292 135.517 94.9745L134.31 94.1994C132.973 93.3448 131.205 93.7337 130.348 95.0694C129.495 96.4053 129.883 98.1789 131.213 99.0335L132.424 99.8086C132.897 100.115 133.421 100.259 133.942 100.263C134.897 100.272 135.831 99.8079 136.386 98.9422ZM120.694 88.8676C121.547 87.5319 121.159 85.7546 119.829 84.9L118.618 84.1248C117.281 83.2702 115.51 83.6591 114.656 84.995C113.803 86.3307 114.192 88.1044 115.522 88.9589L116.732 89.7343C117.205 90.0371 117.729 90.184 118.251 90.1888C119.205 90.1975 120.143 89.7299 120.694 88.8676ZM105.002 78.793C105.859 77.4573 105.467 75.6836 104.137 74.8254L102.93 74.0538C101.589 73.1956 99.8184 73.5847 98.9685 74.9204C98.1116 76.2561 98.5036 78.0298 99.8339 78.8878L101.041 79.6631C101.513 79.966 102.041 80.1095 102.559 80.1142C103.514 80.1229 104.451 79.6588 105.002 78.793ZM89.3142 68.7221C90.1675 67.3898 89.7792 65.6125 88.449 64.7545L87.2421 63.9792C85.9154 63.1212 84.1372 63.5136 83.2805 64.8422C82.4234 66.1781 82.8119 67.9552 84.1457 68.8098L85.3526 69.5851C85.8218 69.8914 86.3493 70.0385 86.8709 70.0433C87.822 70.052 88.7598 69.5841 89.3142 68.7221ZM73.6227 58.6475C74.476 57.3118 74.091 55.5345 72.7573 54.6799L71.5506 53.9046C70.2274 53.0466 68.4455 53.4391 67.5888 54.7678C66.7354 56.1035 67.1204 57.8806 68.4542 58.7352L69.6609 59.5105C70.1301 59.8168 70.6576 59.9639 71.1794 59.9687C72.1305 59.9774 73.0683 59.5096 73.6227 58.6475ZM57.9345 48.5693C58.7915 47.2373 58.3995 45.4599 57.0692 44.6054L55.8625 43.83C54.5251 42.9719 52.7541 43.3645 51.9007 44.6967C51.0437 46.0324 51.4321 47.8097 52.7659 48.6643L53.9728 49.4394C54.4456 49.7425 54.9695 49.8894 55.4911 49.8942C56.4459 49.9029 57.3837 49.4353 57.9345 48.5693ZM233.206 179.024C234.391 177.972 234.503 176.16 233.456 174.971L232.508 173.895C231.458 172.706 229.648 172.593 228.46 173.645C227.276 174.694 227.164 176.509 228.21 177.699L229.159 178.773C229.721 179.408 230.499 179.735 231.283 179.742C231.965 179.748 232.652 179.513 233.206 179.024ZM220.865 165.041C222.05 163.99 222.159 162.174 221.112 160.988L220.16 159.913C219.106 158.724 217.297 158.615 216.112 159.666C214.924 160.715 214.816 162.53 215.866 163.716L216.815 164.795C217.377 165.429 218.155 165.756 218.939 165.763C219.624 165.769 220.311 165.531 220.865 165.041ZM208.517 151.059C209.702 150.007 209.811 148.192 208.764 147.006L207.812 145.931C206.758 144.738 204.949 144.632 203.764 145.684C202.576 146.732 202.467 148.548 203.518 149.734L204.466 150.812C205.028 151.447 205.806 151.774 206.591 151.781C207.276 151.787 207.963 151.548 208.517 151.059ZM266.626 265.833C268.111 265.289 268.878 263.639 268.338 262.149L267.847 260.801C267.303 259.31 265.656 258.549 264.167 259.089C262.682 259.634 261.915 261.28 262.455 262.77L262.947 264.122C263.373 265.277 264.456 265.998 265.616 266.009C265.954 266.012 266.291 265.955 266.626 265.833ZM260.241 248.298C261.73 247.753 262.494 246.104 261.953 244.617L261.462 243.265C260.915 241.775 259.271 241.013 257.783 241.554C256.298 242.098 255.53 243.748 256.07 245.235L256.565 246.587C256.988 247.742 258.071 248.463 259.231 248.473C259.569 248.477 259.906 248.419 260.241 248.298ZM253.856 230.762C255.345 230.218 256.109 228.569 255.569 227.078L255.077 225.73C254.53 224.235 252.89 223.478 251.398 224.019C249.913 224.559 249.145 226.209 249.689 227.699L250.181 229.047C250.603 230.207 251.69 230.927 252.846 230.938C253.184 230.941 253.521 230.884 253.856 230.762ZM247.471 213.227C248.96 212.683 249.724 211.033 249.184 209.542L248.692 208.194C248.145 206.704 246.508 205.942 245.013 206.483C243.528 207.027 242.764 208.673 243.304 210.164L243.796 211.512C244.218 212.671 245.305 213.392 246.462 213.403C246.799 213.406 247.14 213.348 247.471 213.227ZM358.799 204.481C359.072 202.92 358.031 201.432 356.472 201.158L355.058 200.91C353.492 200.64 352.01 201.679 351.74 203.24C351.466 204.802 352.507 206.29 354.066 206.564L355.48 206.814C355.64 206.841 355.796 206.857 355.952 206.858C357.329 206.871 358.555 205.887 358.799 204.481ZM340.443 201.253C340.716 199.688 339.672 198.203 338.113 197.93L336.699 197.682C335.105 197.408 333.654 198.454 333.381 200.015C333.107 201.58 334.151 203.065 335.714 203.339L337.125 203.586C337.284 203.613 337.44 203.628 337.596 203.63C338.973 203.642 340.196 202.655 340.443 201.253ZM322.084 198.025C322.361 196.463 321.313 194.975 319.754 194.701L318.344 194.454C316.752 194.187 315.298 195.229 315.025 196.791C314.752 198.352 315.796 199.84 317.355 200.114L318.769 200.361C318.928 200.388 319.084 200.4 319.237 200.401C320.614 200.414 321.84 199.43 322.084 198.025ZM303.728 194.804C304.002 193.239 302.961 191.75 301.402 191.477L299.988 191.229C298.418 190.955 296.939 191.997 296.669 193.559C296.392 195.124 297.437 196.612 298.996 196.886L300.406 197.133C300.566 197.163 300.725 197.175 300.881 197.177C302.258 197.189 303.481 196.205 303.728 194.804ZM285.369 191.575C285.646 190.014 284.602 188.526 283.042 188.252L281.632 188.004C280.059 187.727 278.583 188.773 278.31 190.334C278.037 191.896 279.077 193.384 280.64 193.658L282.05 193.909C282.21 193.935 282.366 193.951 282.522 193.952C283.903 193.965 285.125 192.98 285.369 191.575ZM267.013 188.351C267.286 186.789 266.246 185.301 264.687 185.027L263.273 184.776C261.699 184.502 260.224 185.544 259.954 187.109C259.678 188.671 260.722 190.159 262.281 190.433L263.695 190.68C263.854 190.71 264.01 190.722 264.166 190.724C265.543 190.736 266.77 189.752 267.013 188.351Z" stroke="#7895FF" stroke-width="4" mask="url(#path-1-outside-1_4_419)"/>
</g>
<path d="M269.963 275.848L275.875 265.086L281.854 276.103L292.747 282.295L281.895 288.014L275.987 298.776L270.004 287.756L259.114 281.567L269.963 275.848ZM14.1641 33.8944L27.2004 41.3039L34.3597 54.4923L41.4301 41.6151L54.4188 34.7674L41.3827 27.358L34.2233 14.1732L27.153 27.0502L14.1641 33.8944ZM365.909 212.099L378.946 219.509L386.105 232.697L393.175 219.82L406.164 212.972L393.128 205.563L385.969 192.374L378.898 205.255L365.909 212.099ZM184.565 136.889L191.945 141.087L195.997 148.553L200.003 141.26L207.354 137.385L199.974 133.188L195.921 125.722L191.919 133.014L184.565 136.889ZM227.12 187.136L234.5 191.33L238.552 198.796L242.555 191.507L249.909 187.629L242.529 183.435L238.476 175.969L234.47 183.261L227.12 187.136ZM183.453 129.166C184.307 127.834 183.922 126.056 182.588 125.198L181.381 124.423C180.055 123.565 178.276 123.957 177.419 125.29C176.566 126.622 176.951 128.399 178.285 129.257L179.492 130.032C179.961 130.335 180.489 130.482 181.01 130.487C181.961 130.496 182.899 130.028 183.453 129.166ZM167.762 119.091C168.619 117.759 168.23 115.982 166.897 115.124L165.69 114.348C164.363 113.49 162.589 113.879 161.728 115.215C160.875 116.547 161.263 118.324 162.593 119.183L163.8 119.958C164.269 120.261 164.797 120.408 165.318 120.412C166.273 120.421 167.207 119.953 167.762 119.091ZM152.07 109.02C152.927 107.684 152.539 105.907 151.205 105.053L150.002 104.277C148.671 103.416 146.897 103.808 146.04 105.14C145.183 106.473 145.571 108.25 146.905 109.108L148.108 109.883C148.581 110.186 149.109 110.333 149.63 110.338C150.582 110.347 151.519 109.879 152.07 109.02ZM136.386 98.9422C137.239 97.6064 136.851 95.8292 135.517 94.9745L134.31 94.1994C132.973 93.3448 131.205 93.7337 130.348 95.0694C129.495 96.4053 129.883 98.1789 131.213 99.0335L132.424 99.8086C132.897 100.115 133.421 100.259 133.942 100.263C134.897 100.272 135.831 99.8079 136.386 98.9422ZM120.694 88.8676C121.547 87.5319 121.159 85.7546 119.829 84.9L118.618 84.1248C117.281 83.2702 115.51 83.6591 114.656 84.995C113.803 86.3307 114.192 88.1044 115.522 88.9589L116.732 89.7343C117.205 90.0371 117.729 90.184 118.251 90.1888C119.205 90.1975 120.143 89.7299 120.694 88.8676ZM105.002 78.793C105.859 77.4573 105.467 75.6836 104.137 74.8254L102.93 74.0538C101.589 73.1956 99.8184 73.5847 98.9685 74.9204C98.1116 76.2561 98.5036 78.0298 99.8339 78.8878L101.041 79.6631C101.513 79.966 102.041 80.1095 102.559 80.1142C103.514 80.1229 104.451 79.6588 105.002 78.793ZM89.3142 68.7221C90.1675 67.3898 89.7792 65.6125 88.449 64.7545L87.2421 63.9792C85.9154 63.1212 84.1372 63.5136 83.2805 64.8422C82.4234 66.1781 82.8119 67.9552 84.1457 68.8098L85.3526 69.5851C85.8218 69.8914 86.3493 70.0385 86.8709 70.0433C87.822 70.052 88.7598 69.5841 89.3142 68.7221ZM73.6227 58.6475C74.476 57.3118 74.091 55.5345 72.7573 54.6799L71.5506 53.9046C70.2274 53.0466 68.4455 53.4391 67.5888 54.7678C66.7354 56.1035 67.1204 57.8806 68.4542 58.7352L69.6609 59.5105C70.1301 59.8168 70.6576 59.9639 71.1794 59.9687C72.1305 59.9774 73.0683 59.5096 73.6227 58.6475ZM57.9345 48.5693C58.7915 47.2373 58.3995 45.4599 57.0692 44.6054L55.8625 43.83C54.5251 42.9719 52.7541 43.3645 51.9007 44.6967C51.0437 46.0324 51.4321 47.8097 52.7659 48.6643L53.9728 49.4394C54.4456 49.7425 54.9695 49.8894 55.4911 49.8942C56.4459 49.9029 57.3837 49.4353 57.9345 48.5693ZM233.206 179.024C234.391 177.972 234.503 176.16 233.456 174.971L232.508 173.895C231.458 172.706 229.648 172.593 228.46 173.645C227.276 174.694 227.164 176.509 228.21 177.699L229.159 178.773C229.721 179.408 230.499 179.735 231.283 179.742C231.965 179.748 232.652 179.513 233.206 179.024ZM220.865 165.041C222.05 163.99 222.159 162.174 221.112 160.988L220.16 159.913C219.106 158.724 217.297 158.615 216.112 159.666C214.924 160.715 214.816 162.53 215.866 163.716L216.815 164.795C217.377 165.429 218.155 165.756 218.939 165.763C219.624 165.769 220.311 165.531 220.865 165.041ZM208.517 151.059C209.702 150.007 209.811 148.192 208.764 147.006L207.812 145.931C206.758 144.738 204.949 144.632 203.764 145.684C202.576 146.732 202.467 148.548 203.518 149.734L204.466 150.812C205.028 151.447 205.806 151.774 206.591 151.781C207.276 151.787 207.963 151.548 208.517 151.059ZM266.626 265.833C268.111 265.289 268.878 263.639 268.338 262.149L267.847 260.801C267.303 259.31 265.656 258.549 264.167 259.089C262.682 259.634 261.915 261.28 262.455 262.77L262.947 264.122C263.373 265.277 264.456 265.998 265.616 266.009C265.954 266.012 266.291 265.955 266.626 265.833ZM260.241 248.298C261.73 247.753 262.494 246.104 261.953 244.617L261.462 243.265C260.915 241.775 259.271 241.013 257.783 241.554C256.298 242.098 255.53 243.748 256.07 245.235L256.565 246.587C256.988 247.742 258.071 248.463 259.231 248.473C259.569 248.477 259.906 248.419 260.241 248.298ZM253.856 230.762C255.345 230.218 256.109 228.569 255.569 227.078L255.077 225.73C254.53 224.235 252.89 223.478 251.398 224.019C249.913 224.559 249.145 226.209 249.689 227.699L250.181 229.047C250.603 230.207 251.69 230.927 252.846 230.938C253.184 230.941 253.521 230.884 253.856 230.762ZM247.471 213.227C248.96 212.683 249.724 211.033 249.184 209.542L248.692 208.194C248.145 206.704 246.508 205.942 245.013 206.483C243.528 207.027 242.764 208.673 243.304 210.164L243.796 211.512C244.218 212.671 245.305 213.392 246.462 213.403C246.799 213.406 247.14 213.348 247.471 213.227ZM358.799 204.481C359.072 202.92 358.031 201.432 356.472 201.158L355.058 200.91C353.492 200.64 352.01 201.679 351.74 203.24C351.466 204.802 352.507 206.29 354.066 206.564L355.48 206.814C355.64 206.841 355.796 206.857 355.952 206.858C357.329 206.871 358.555 205.887 358.799 204.481ZM340.443 201.253C340.716 199.688 339.672 198.203 338.113 197.93L336.699 197.682C335.105 197.408 333.654 198.454 333.381 200.015C333.107 201.58 334.151 203.065 335.714 203.339L337.125 203.586C337.284 203.613 337.44 203.628 337.596 203.63C338.973 203.642 340.196 202.655 340.443 201.253ZM322.084 198.025C322.361 196.463 321.313 194.975 319.754 194.701L318.344 194.454C316.752 194.187 315.298 195.229 315.025 196.791C314.752 198.352 315.796 199.84 317.355 200.114L318.769 200.361C318.928 200.388 319.084 200.4 319.237 200.401C320.614 200.414 321.84 199.43 322.084 198.025ZM303.728 194.804C304.002 193.239 302.961 191.75 301.402 191.477L299.988 191.229C298.418 190.955 296.939 191.997 296.669 193.559C296.392 195.124 297.437 196.612 298.996 196.886L300.406 197.133C300.566 197.163 300.725 197.175 300.881 197.177C302.258 197.189 303.481 196.205 303.728 194.804ZM285.369 191.575C285.646 190.014 284.602 188.526 283.042 188.252L281.632 188.004C280.059 187.727 278.583 188.773 278.31 190.334C278.037 191.896 279.077 193.384 280.64 193.658L282.05 193.909C282.21 193.935 282.366 193.951 282.522 193.952C283.903 193.965 285.125 192.98 285.369 191.575ZM267.013 188.351C267.286 186.789 266.246 185.301 264.687 185.027L263.273 184.776C261.699 184.502 260.224 185.544 259.954 187.109C259.678 188.671 260.722 190.159 262.281 190.433L263.695 190.68C263.854 190.71 264.01 190.722 264.166 190.724C265.543 190.736 266.77 189.752 267.013 188.351Z" fill="white"/>
<defs>
<filter id="filter0_f_4_419" x="0" y="0" width="420.327" height="312.95" filterUnits="userSpaceOnUse" color-interpolation-filters="sRGB">
<feFlood flood-opacity="0" result="BackgroundImageFix"/>
<feBlend mode="normal" in="SourceGraphic" in2="BackgroundImageFix" result="shape"/>
<feGaussianBlur stdDeviation="5" result="effect1_foregroundBlur_4_419"/>
</filter>
</defs>
</svg>
